<svg xmlns="http://www.w3.org/2000/svg" width="1000" height="332.60202" viewBox="0 0 264.58333 88.000954"><g style="fill:#000;fill-opacity:1;fill-rule:evenodd;stroke:none;stroke-width:1;stroke-linecap:square;stroke-linejoin:bevel"><path d="M1119.44 269.32h-80v-99.75h-20v99.75h-80V20h80v69.78h60l40 39.9v139.64m-199.9-99.75h-80v20h80v79.8H799.6l-40-39.9v-99.79l40-39.9h119.94v79.79m-179.91 0h-70v20h70v79.8H629.69l-40-39.9V20h80v69.78h70l-.06 79.79M569.72 69.83h-80V20h80v49.83m0 199.49h-80V89.78h80v179.54m-100 0H229.89l-40-39.9V89.78h80v99.74h20V89.78h80v99.74h20V89.78h80l-.17 179.54m-299.8-99.75H100v20h70v79.8H60l-40-39.9V20h80v69.78h70l-.08 79.79m919.54-99.74h-50V0H929.75l-50.47 69.83h-89.67l-30 29.92V69.83h-70V0H469.77v69.83H160.42L110 0H0v239.4L139.93 379h139.93v-39.9l40 39.9h269.85v-39.9l40 39.9h129.91v-39.9l40 39.9h249.88l90-89.78V119.7l-50.04-49.87" style="vector-effect:none;fill-rule:nonzero;fill:#000;fill-opacity:1" transform="scale(.23219)"/></g><g style="fill:#fff;fill-opacity:1;fill-rule:evenodd;stroke:none;stroke-width:1;stroke-linecap:square;stroke-linejoin:bevel"><path d="M939.53 269.32h79.96v-99.75h19.99v99.75h79.96V129.68l-39.98-39.9h-59.97V19.96h-79.96v249.36m-349.82-39.9 39.97 39.9h109.95v-79.8h-69.96v-19.95h69.96V89.78h-69.96V19.96h-79.96v209.46m169.91 0 39.98 39.9h119.94v-79.8h-79.96v-19.95h79.96V89.78H799.6l-39.98 39.9v99.74M489.76 19.96h79.96v49.87h-79.96V19.96M169.92 89.78H99.95V19.96H19.99v209.46l39.98 39.9h109.95v-79.8H99.95v-19.95h69.97V89.78m19.99 139.64 39.97 39.9h239.89V89.78h-79.96v99.74h-20V89.78h-79.95v99.74h-19.99V89.78h-79.96v139.64M489.76 89.78h79.96v179.54h-79.96V89.78" style="vector-effect:none;fill-rule:nonzero" transform="scale(.23219)"/></g></svg>